<svg width="54" height="55" viewBox="0 0 54 55" fill="none" xmlns="http://www.w3.org/2000/svg">
<g id="toggle">
<g id="globe-moon">
<circle id="globe" cx="26.9829" cy="27.5059" r="15" fill="#D9D9D9"/>
<path id="moon" fill-rule="evenodd" clip-rule="evenodd" d="M26.8866 14.9004C23.0893 18.3255 21.6975 23.8948 23.8411 28.9505C25.985 34.0069 31.0199 37.0302 36.2121 36.895C35.1473 37.8558 33.9035 38.6574 32.4822 39.2202C25.9951 41.7894 18.5109 38.6238 15.7656 32.1488C13.0205 25.6745 16.0538 18.3426 22.541 15.7734C23.9622 15.2105 25.4304 14.938 26.8866 14.9004Z" fill="black"/>
</g>
<g id="sun-rays">
<rect id="ray" x="25.4829" y="0.683594" width="3" height="10" rx="1.5" fill="#D9D9D9"/>
<rect id="ray_2" x="43.7188" y="29.0059" width="3" height="10" rx="1.5" transform="rotate(-90 43.7188 29.0059)" fill="#D9D9D9"/>
<rect id="ray_3" x="0.246826" y="29.0059" width="3" height="10" rx="1.5" transform="rotate(-90 0.246826 29.0059)" fill="#D9D9D9"/>
<rect id="ray_4" x="25.4829" y="44.3281" width="3" height="10" rx="1.5" fill="#D9D9D9"/>
<rect id="ray_5" x="6.95605" y="9.60156" width="3" height="10" rx="1.5" transform="rotate(-45 6.95605 9.60156)" fill="#D9D9D9"/>
<rect id="ray_6" x="39.8774" y="16.7324" width="3" height="10" rx="1.5" transform="rotate(-135 39.8774 16.7324)" fill="#D9D9D9"/>
<rect id="ray_7" x="9.13818" y="47.4727" width="3" height="10" rx="1.5" transform="rotate(-135 9.13818 47.4727)" fill="#D9D9D9"/>
<rect id="ray_8" x="37.8174" y="40.4629" width="3" height="10" rx="1.5" transform="rotate(-45 37.8174 40.4629)" fill="#D9D9D9"/>
</g>
</g>
</svg>
